<svg width="40" height="42" fill="none" xmlns="http://www.w3.org/2000/svg"><path d="M2.01 22.873c-1.733-.648-1.733-3.098 0-3.746l10.255-3.835a2 2 0 0 0 1.298-1.786l.478-10.939c.08-1.848 2.412-2.605 3.563-1.158l6.817 8.569a2 2 0 0 0 2.1.682l10.55-2.925c1.783-.495 3.223 1.488 2.203 3.03l-6.044 9.131a2 2 0 0 0 0 2.208l6.044 9.13c1.02 1.543-.42 3.526-2.203 3.031l-10.55-2.925a2 2 0 0 0-2.1.682l-6.817 8.569c-1.151 1.447-3.482.69-3.563-1.158l-.478-10.939a2 2 0 0 0-1.298-1.786L2.01 22.873Z" fill="#fff"/></svg>