<svg width="140" height="90" viewBox="0 0 140 90" fill="none" xmlns="http://www.w3.org/2000/svg">
<path d="M36.9543 25.1695L18.8131 33L1.78814e-07 25.1695V7.83058L18.8131 8.99434e-05L36.9543 7.83058V25.1695Z" fill="white"/>
<path d="M36.9543 82.1695L18.8131 90L-7.15256e-07 82.1695V64.8306L18.8131 57.0001L36.9543 64.8306V82.1695Z" fill="white"/>
<path d="M78.1726 82.1695L60.0314 90L41.2183 82.1695V64.8306L60.0314 57.0001L78.1726 64.8306V82.1695Z" fill="white"/>
<path d="M119.391 82.1695L101.25 90L82.4365 82.1695V64.8306L101.25 57.0001L119.391 64.8306V82.1695Z" fill="white"/>
<path d="M140 53.3697L121.859 61.2002L103.046 53.3697V36.0308L121.859 28.2003L140 36.0308V53.3697Z" fill="white"/>
<path d="M98.7817 53.3697L80.6405 61.2002L61.8274 53.3697V36.0308L80.6405 28.2003L98.7817 36.0308V53.3697Z" fill="white"/>
<path d="M57.5634 53.3697L39.4222 61.2002L20.6091 53.3697V36.0308L39.4222 28.2003L57.5634 36.0308V53.3697Z" fill="white"/>
<path d="M119.391 25.1695L101.25 33L82.4365 25.1695V7.83058L101.25 8.99434e-05L119.391 7.83058V25.1695Z" fill="white"/>
<path d="M78.1726 25.1695L60.0314 33L41.2183 25.1695V7.83058L60.0314 8.99434e-05L78.1726 7.83058V25.1695Z" fill="white"/>
</svg>
