<svg width="140" height="90" fill="none" xmlns="http://www.w3.org/2000/svg"><path d="M36.954 25.17 18.814 33 0 25.17V7.83L18.813 0l18.141 7.83v17.34ZM36.954 82.17 18.814 90 0 82.17V64.83L18.813 57l18.141 7.83v17.34ZM78.173 82.17 60.03 90l-18.813-7.83V64.83L60.031 57l18.142 7.83v17.34ZM119.391 82.17 101.25 90l-18.814-7.83V64.83L101.25 57l18.141 7.83v17.34ZM140 53.37l-18.141 7.83-18.813-7.83V36.03l18.813-7.83L140 36.03v17.34ZM98.782 53.37 80.64 61.2l-18.814-7.83V36.03l18.814-7.83 18.14 7.83v17.34ZM57.563 53.37l-18.14 7.83-18.814-7.83V36.03l18.813-7.83 18.141 7.83v17.34ZM119.391 25.17 101.25 33l-18.814-7.83V7.83L101.25 0l18.141 7.83v17.34ZM78.173 25.17 60.03 33l-18.813-7.83V7.83L60.031 0l18.142 7.83v17.34Z" fill="#fff"/></svg>