<svg width="70" height="70" fill="none" xmlns="http://www.w3.org/2000/svg"><path d="M32.473 4.526c1.153-2.007 4.049-2.007 5.202 0l6.068 10.557a3 3 0 0 1-.005 2.997l-6.067 10.488c-1.156 1.996-4.038 1.996-5.194 0L26.41 18.08a3 3 0 0 1-.004-2.997l6.068-10.557ZM32.473 41.47c1.153-2.007 4.049-2.007 5.202 0l6.068 10.557a3 3 0 0 1-.005 2.998l-6.067 10.487c-1.156 1.997-4.038 1.997-5.194 0L26.41 55.025a3 3 0 0 1-.004-2.998l6.068-10.557ZM7.25 21.822c-1.118-2.006.28-4.477 2.543-4.493l12.048-.082a3 3 0 0 1 2.638 1.56l5.895 10.648c1.108 2.003-.284 4.463-2.539 4.485l-11.988.117a3 3 0 0 1-2.642-1.55L7.25 21.821ZM27.801 36.385c2.263.016 3.662 2.487 2.543 4.494L24.39 51.562a3 3 0 0 1-2.643 1.552L9.76 52.995c-2.255-.022-3.648-2.482-2.539-4.485l5.894-10.648a3 3 0 0 1 2.639-1.56l12.047.082ZM42.199 33.926c-2.263-.015-3.662-2.486-2.543-4.493l5.954-10.684a3 3 0 0 1 2.643-1.55l11.987.116c2.255.022 3.648 2.482 2.539 4.485L56.885 32.45a3 3 0 0 1-2.639 1.559L42.2 33.926ZM62.75 48.488c1.118 2.007-.28 4.478-2.544 4.493l-12.047.082a3 3 0 0 1-2.638-1.559l-5.895-10.648c-1.108-2.003.284-4.464 2.539-4.486l11.988-.117a3 3 0 0 1 2.642 1.551l5.954 10.684Z" fill="#fff"/></svg>